<svg width="16" height="16" viewBox="0 0 16 16" fill="none" xmlns="http://www.w3.org/2000/svg">
<path d="M0.317884 15.894H3.60265V5.29801H0.317884V15.894Z" fill="#0077B5"/>
<path d="M0 1.90728C0 2.96689 0.847685 3.81457 1.90729 3.81457C2.96689 3.81457 3.81457 2.96689 3.81457 1.90728C3.81457 0.847682 2.96689 0 1.90729 0C0.847685 0 0 0.847682 0 1.90728Z" fill="#0077B5"/>
<path d="M12.7152 15.894H16L15.894 10.1722C15.894 7.31126 15.3642 5.08609 11.9735 5.08609C10.702 4.98013 9.53642 5.72185 8.90066 6.78146V5.29801H5.72185V15.894H9.00662V10.596C9.00662 9.21854 9.3245 7.84106 11.0199 7.84106C12.7152 7.84106 12.7152 9.43046 12.7152 10.702V15.894Z" fill="#0077B5"/>
</svg>
