<svg width="48" height="48" viewBox="0 0 48 48" fill="none" xmlns="http://www.w3.org/2000/svg">
<rect width="48" height="48" rx="24" fill="#0077B5"/>
<path d="M16.3179 31.894H19.6026V21.298H16.3179V31.894Z" fill="white"/>
<path d="M16 17.9073C16 18.9669 16.8477 19.8146 17.9073 19.8146C18.9669 19.8146 19.8146 18.9669 19.8146 17.9073C19.8146 16.8477 18.9669 16 17.9073 16C16.8477 16 16 16.8477 16 17.9073Z" fill="white"/>
<path d="M28.7152 31.894H32L31.894 26.1722C31.894 23.3113 31.3642 21.0861 27.9735 21.0861C26.702 20.9801 25.5364 21.7219 24.9007 22.7815V21.298H21.7219V31.894H25.0066V26.596C25.0066 25.2185 25.3245 23.8411 27.0199 23.8411C28.7152 23.8411 28.7152 25.4305 28.7152 26.702V31.894Z" fill="white"/>
</svg>
