<svg width="128" height="56" viewBox="0 0 128 56" fill="none" xmlns="http://www.w3.org/2000/svg">
<mask id="mask0" mask-type="alpha" maskUnits="userSpaceOnUse" x="0" y="0" width="128" height="56">
<rect width="128" height="56" rx="4" fill="#C4C4C4"/>
</mask>
<g mask="url(#mask0)">
<rect width="128" height="56" rx="4" fill="white"/>
<path d="M28.9554 21.0202C28.9554 21.5983 28.5133 22.0404 27.9352 22.0404C27.3571 22.0404 26.915 21.5983 26.915 21.0202C26.915 20.4421 27.3571 20 27.9352 20C28.4793 20 28.9554 20.4761 28.9554 21.0202Z" fill="#314375"/>
<path d="M27.9663 24.8737C26.4361 24.8737 25.3479 22.9353 25.2119 22.4932C25.0758 22.0512 25.5519 21.7111 25.858 21.9832C26.164 22.2552 27.0482 23.1053 27.9663 23.1053C28.8505 23.1053 29.7687 22.2212 30.0407 21.9491C30.3468 21.6771 30.8228 22.0512 30.6868 22.4592C30.5508 22.9013 29.4966 24.8397 27.9663 24.8737Z" fill="#314375"/>
<path d="M22.3558 24.3372C22.8999 24.5072 23.206 25.0853 23.0019 25.6294C22.8319 26.1735 22.2538 26.4796 21.7097 26.3095C21.1656 26.1395 20.8595 25.5614 21.0636 25.0173C21.2676 24.4392 21.8117 24.1332 22.3558 24.3372Z" fill="#314375"/>
<path d="M25.6504 26.5485C25.2084 27.9767 22.998 28.3848 22.5559 28.3848C22.1138 28.3848 21.9098 27.8067 22.2498 27.6027C22.5899 27.3986 23.6781 26.8205 23.9501 26.0044C24.2222 25.1542 23.6441 24.0661 23.5081 23.692C23.338 23.3179 23.8141 22.9779 24.1882 23.2499C24.5622 23.522 26.0925 25.1202 25.6504 26.5485Z" fill="#314375"/>
<path d="M23.5313 31.5765C23.8714 31.1004 24.5175 30.9984 24.9595 31.3384C25.4016 31.6785 25.5376 32.3246 25.1976 32.7667C24.8575 33.2428 24.2114 33.3448 23.7693 33.0047C23.2933 32.6987 23.1912 32.0525 23.5313 31.5765Z" fill="#314375"/>
<path d="M26.5804 29.2883C27.8726 30.1385 27.6345 32.3829 27.5325 32.8249C27.3965 33.267 26.8184 33.301 26.7164 32.8929C26.6144 32.4849 26.3423 31.2947 25.6282 30.7846C24.8801 30.2745 23.6558 30.5125 23.2478 30.5465C22.8397 30.6145 22.6357 30.0364 23.0097 29.7644C23.3498 29.4243 25.3221 28.4042 26.5804 29.2883Z" fill="#314375"/>
<path d="M33.612 24.5104C33.0679 24.6804 32.7958 25.2585 32.9659 25.8026C33.1359 26.3467 33.714 26.6187 34.2581 26.4487C34.8022 26.2787 35.0742 25.7006 34.9042 25.1565C34.7342 24.6124 34.1561 24.3063 33.612 24.5104Z" fill="#314375"/>
<path d="M30.3731 26.7252C30.8492 28.1534 32.9915 28.5275 33.4676 28.5275C33.9097 28.5275 34.1137 27.9494 33.7737 27.7794C33.4336 27.5753 32.3454 27.0312 32.0734 26.2151C31.8013 25.399 32.3454 24.3108 32.5154 23.9367C32.6855 23.5626 32.2094 23.2566 31.8353 23.4946C31.4273 23.7327 29.897 25.3309 30.3731 26.7252Z" fill="#314375"/>
<path d="M32.678 31.6818C32.3379 31.2397 31.6918 31.1377 31.2497 31.4437C30.8076 31.7838 30.7056 32.4299 31.0457 32.872C31.3857 33.3141 32.0319 33.4161 32.4739 33.11C32.916 32.77 33.018 32.1239 32.678 31.6818Z" fill="#314375"/>
<path d="M29.5467 29.5301C28.3564 30.4822 28.7645 32.6926 28.9345 33.1007C29.1046 33.5088 29.6827 33.5088 29.7507 33.1007C29.8187 32.6926 29.9547 31.4684 30.6689 30.9243C31.349 30.3462 32.6072 30.4822 32.9813 30.4822C33.3893 30.5163 33.5253 29.9041 33.1513 29.6661C32.7772 29.3941 30.7369 28.5439 29.5467 29.5301Z" fill="#314375"/>
<path d="M37.5776 24.6194H38.5978L41.4883 32.1687L44.3448 24.6194H45.365L41.9304 33.5289H40.9782L37.5776 24.6194Z" fill="#65686D"/>
<path d="M46.1255 25.6736V24.6194H47.1797V25.6736H46.1255ZM46.1595 33.5289H47.1117V26.8638H46.1595V33.5289Z" fill="#65686D"/>
<path d="M49.668 24.3171H48.7158V33.5327H49.668V24.3171Z" fill="#65686D"/>
<path d="M52.1289 24.2739H51.1768V33.4895H52.1289V24.2739Z" fill="#65686D"/>
<path d="M53.1621 31.4277C53.1621 31.1216 53.2301 30.8496 53.3321 30.6115C53.4342 30.3735 53.5702 30.1695 53.7402 30.0334C53.9102 29.8974 54.1143 29.7614 54.3523 29.6594C54.5904 29.5574 54.8284 29.4893 54.9984 29.4213C55.2025 29.3873 55.4065 29.3193 55.6785 29.3193C55.9506 29.3193 56.1206 29.2853 56.2566 29.2853H56.6647L57.7189 29.3533C57.7189 28.7412 57.5489 28.2991 57.2428 28.0611C56.9028 27.789 56.4267 27.687 55.7806 27.687C55.0664 27.687 54.4203 27.789 53.8422 27.9931V27.0749C54.4883 26.8369 55.1685 26.7349 55.8486 26.7349C56.7667 26.7349 57.4809 26.9729 57.9909 27.449C58.467 27.9251 58.7391 28.6052 58.7391 29.5233V31.5297C58.7391 31.9718 58.6371 32.3118 58.433 32.6179C58.229 32.9239 57.9909 33.128 57.6849 33.264C57.3788 33.4 57.0728 33.502 56.8007 33.536C56.5287 33.604 56.2566 33.6041 55.9846 33.6041C55.7806 33.6041 55.5765 33.6041 55.3385 33.57C55.1004 33.536 54.8624 33.468 54.5904 33.4C54.3183 33.298 54.0803 33.196 53.8762 33.0259C53.6722 32.8899 53.5022 32.6859 53.3661 32.4138C53.2301 32.1078 53.1621 31.7677 53.1621 31.4277ZM54.1143 31.4277C54.1143 32.2438 54.7264 32.6859 55.9166 32.6859H55.9506C57.1408 32.6859 57.7189 32.2778 57.7189 31.4617V30.1695C57.4128 30.1014 57.0388 30.1014 56.5287 30.1014C54.9304 30.1014 54.1143 30.5435 54.1143 31.4277Z" fill="#65686D"/>
<path d="M59.5088 30.083C59.5088 29.4029 59.6108 28.7908 59.7808 28.3147C59.9849 27.8386 60.2229 27.4646 60.529 27.2605C60.835 27.0565 61.1411 26.8865 61.4471 26.7845C61.7192 26.7164 62.0252 26.6484 62.3313 26.6484C62.9094 26.6484 63.3855 26.7164 63.7595 26.8865C64.1336 27.0565 64.4056 27.2605 64.5757 27.4986C64.7457 27.7366 64.8477 27.9747 64.8817 28.1447C64.9497 28.3147 64.9497 28.5188 64.9497 28.6888V33.7217C64.9497 34.0277 64.9157 34.2998 64.8137 34.5378C64.7457 34.7759 64.5757 35.0139 64.4056 35.2519C64.2016 35.49 63.8955 35.66 63.5215 35.796C63.1474 35.9321 62.6373 36.0001 62.0592 36.0001C61.4471 36.0001 60.801 35.9321 60.1549 35.762V34.8439C60.733 35.0139 61.3111 35.0819 61.9572 35.0819C62.3993 35.0819 62.7393 35.0479 63.0454 34.9799C63.3174 34.9119 63.5555 34.8099 63.6575 34.6398C63.7935 34.5038 63.8615 34.3678 63.9296 34.2318C63.9636 34.0957 63.9976 33.9257 63.9976 33.7217V33.0415C63.4875 33.2116 62.9774 33.2796 62.4333 33.2796C62.1272 33.2796 61.8552 33.2456 61.6172 33.2116C61.3791 33.1776 61.1071 33.0756 60.835 32.9055C60.563 32.7695 60.3249 32.5655 60.1549 32.3274C59.9509 32.0894 59.8148 31.7833 59.6788 31.3753C59.5768 31.0692 59.5088 30.5931 59.5088 30.083ZM60.461 30.083C60.461 30.5931 60.529 31.0012 60.631 31.3072C60.733 31.6473 60.903 31.8853 61.1071 32.0214C61.3111 32.1914 61.5151 32.2934 61.7192 32.3274C61.9232 32.3954 62.1612 32.3954 62.4673 32.3954C63.0114 32.3954 63.5215 32.2934 64.0316 32.0894V28.6548C64.0316 27.9067 63.4875 27.5326 62.3653 27.5326C62.1272 27.5326 61.9232 27.5666 61.7192 27.6006C61.5491 27.6686 61.3451 27.7706 61.1411 27.9407C60.937 28.1107 60.767 28.3487 60.665 28.7228C60.529 29.0969 60.461 29.5389 60.461 30.083Z" fill="#65686D"/>
<path d="M65.9419 30.1851V30.151V30.083C65.9419 27.8046 66.9281 26.6484 68.8664 26.6484C69.2745 26.6484 69.6485 26.7164 69.9886 26.8525C70.3287 26.9885 70.5667 27.1245 70.7707 27.2945C70.9748 27.4646 71.1448 27.7026 71.2808 27.9747C71.4168 28.2467 71.5189 28.4848 71.5869 28.6888C71.6549 28.8928 71.6889 29.1309 71.7229 29.4029C71.7569 29.675 71.7909 29.845 71.7909 29.913V30.1851L71.7569 30.6611H66.8941C66.9621 31.3413 67.1661 31.8173 67.5062 32.1234C67.8462 32.4294 68.3563 32.5655 69.0704 32.5655C70.0226 32.5655 70.8047 32.3954 71.3488 32.0554V33.0415C70.7027 33.3476 69.9206 33.5176 69.0024 33.5176H68.9684C68.5944 33.5176 68.2203 33.4836 67.8802 33.3816C67.5402 33.2796 67.2341 33.1096 66.9281 32.9055C66.622 32.6675 66.384 32.3274 66.1799 31.8513C66.0439 31.4093 65.9419 30.8652 65.9419 30.1851ZM66.8941 29.811H70.8047C70.8047 29.675 70.7707 29.5049 70.7367 29.3009C70.7027 29.1309 70.6347 28.8588 70.4987 28.5868C70.3967 28.2807 70.1926 28.0427 69.8866 27.8386C69.5805 27.6346 69.2405 27.5326 68.7984 27.5326C68.1523 27.5326 67.6422 27.7026 67.3701 28.0427C67.1321 28.4167 66.9621 28.9948 66.8941 29.811Z" fill="#65686D"/>
<path d="M73.3237 28.9604C73.3237 25.8998 74.718 24.4036 77.4725 24.4036C78.4246 24.4036 79.3428 24.5736 80.1929 24.9137V25.8318C79.3428 25.4918 78.4586 25.2877 77.5745 25.2877C76.4523 25.2877 75.6021 25.5938 75.092 26.1719C74.582 26.75 74.3099 27.7021 74.3099 28.9604C74.3099 30.2186 74.582 31.1367 75.092 31.7488C75.6021 32.3269 76.4523 32.633 77.5745 32.633C78.4926 32.633 79.3428 32.463 80.1929 32.1229V33.0411C79.3428 33.3811 78.4586 33.5512 77.5065 33.5512H77.4725C74.684 33.5512 73.3237 32.0209 73.3237 28.9604Z" fill="#65686D"/>
<path d="M80.4038 31.332C80.4038 31.026 80.4718 30.7539 80.5738 30.5159C80.6759 30.2779 80.8119 30.0738 80.9819 29.9378C81.1519 29.8018 81.356 29.6658 81.594 29.5637C81.8321 29.4617 82.0701 29.3937 82.2401 29.3257C82.4442 29.2917 82.6482 29.2237 82.9202 29.2237C83.1923 29.2237 83.3623 29.1897 83.4983 29.1897H83.9064L84.9606 29.2577C84.9606 28.6456 84.7906 28.2035 84.4845 27.9655C84.1445 27.6934 83.6684 27.5914 83.0223 27.5914C82.3081 27.5914 81.662 27.6934 81.0839 27.8974V26.9453C81.73 26.7072 82.4102 26.6052 83.0903 26.6052C84.0084 26.6052 84.7226 26.8433 85.2327 27.3193C85.7087 27.7954 85.9808 28.4755 85.9808 29.3937V31.4001C85.9808 31.8421 85.8788 32.1822 85.6747 32.4882C85.4707 32.7943 85.2327 32.9983 84.9266 33.1344C84.6205 33.2704 84.3145 33.3724 84.0424 33.4064C83.7704 33.4744 83.4983 33.4744 83.2263 33.4744C83.0223 33.4744 82.8182 33.4744 82.5802 33.4404C82.3421 33.4064 82.1041 33.3384 81.8321 33.2704C81.56 33.1684 81.322 33.0663 81.1179 32.8963C80.9139 32.7603 80.7439 32.5563 80.6078 32.2842C80.4718 32.0122 80.4038 31.7061 80.4038 31.332ZM81.39 31.332C81.39 32.1482 82.0021 32.5903 83.1923 32.5903H83.2263C84.4165 32.5903 84.9946 32.1822 84.9946 31.3661V30.1078C84.6886 30.0398 84.3145 30.0398 83.8044 30.0398C82.2061 30.0398 81.39 30.4819 81.39 31.332Z" fill="#65686D"/>
<path d="M87.0952 35.8548V28.7136C87.0952 28.5436 87.1292 28.3395 87.1632 28.1695C87.2312 27.9995 87.3333 27.7614 87.5033 27.4894C87.6733 27.2173 87.9454 27.0133 88.3534 26.8433C88.7615 26.6732 89.2376 26.6052 89.8497 26.6052C90.0877 26.6052 90.3258 26.6392 90.5638 26.6732C90.8019 26.7072 91.0739 26.8093 91.346 26.9793C91.618 27.1493 91.856 27.3193 92.0601 27.5914C92.2641 27.8634 92.4341 28.1695 92.5702 28.6116C92.7062 29.0537 92.7742 29.5637 92.7742 30.1418C92.7742 30.788 92.6722 31.3661 92.5022 31.8421C92.3321 32.3182 92.0601 32.6583 91.754 32.8963C91.448 33.1344 91.1079 33.3044 90.8019 33.3724C90.4618 33.4744 90.1217 33.5084 89.7137 33.5084C89.1696 33.5084 88.6255 33.4064 88.0474 33.2364V35.8548H87.0952ZM88.0474 32.2502C88.5575 32.4882 89.1016 32.5903 89.7137 32.5903C90.4278 32.5903 90.9719 32.3862 91.3119 32.0122C91.652 31.6381 91.822 30.992 91.822 30.1078C91.822 29.5637 91.754 29.0877 91.652 28.7136C91.55 28.3395 91.38 28.0675 91.1419 27.8974C90.9379 27.7274 90.7338 27.6254 90.5298 27.5574C90.3258 27.4894 90.1217 27.4894 89.8497 27.4894C88.6595 27.4894 88.0814 27.8974 88.0814 28.6796V32.2502H88.0474Z" fill="#65686D"/>
<path d="M93.8735 25.5007V24.4465H94.9277V25.5007H93.8735ZM93.9075 33.3221H94.8597V26.6569H93.9075V33.3221Z" fill="#65686D"/>
<path d="M95.6436 27.5465V26.6623H96.7998V24.792H97.7519V26.6623H99.4862V27.5465H97.7519V31.6272C97.7519 31.9672 97.8199 32.2053 97.9559 32.3413C98.092 32.4773 98.33 32.5453 98.7041 32.5453C98.9761 32.5453 99.2482 32.4773 99.4522 32.3753V33.2935C99.1802 33.3955 98.8741 33.4635 98.6021 33.4635H98.5681C98.398 33.4635 98.228 33.4295 98.058 33.3955C97.8879 33.3615 97.6839 33.2935 97.4799 33.1575C97.2758 33.0214 97.1058 32.8514 96.9698 32.5794C96.8338 32.3073 96.7657 31.9672 96.7657 31.5592V27.5465H95.6436Z" fill="#65686D"/>
<path d="M100.046 31.2548C100.046 30.9488 100.114 30.6767 100.216 30.4387C100.318 30.2006 100.454 29.9966 100.624 29.8606C100.795 29.7246 100.999 29.5885 101.237 29.4865C101.475 29.3845 101.713 29.3165 101.883 29.2485C102.087 29.2145 102.291 29.1465 102.563 29.1465C102.835 29.1465 103.005 29.1125 103.141 29.1125H103.549L104.603 29.1805C104.603 28.5684 104.433 28.1263 104.127 27.8882C103.787 27.6162 103.311 27.5142 102.665 27.5142C101.951 27.5142 101.305 27.6162 100.727 27.8202V26.9021C101.373 26.664 102.053 26.562 102.733 26.562C103.651 26.562 104.365 26.8001 104.875 27.2761C105.351 27.7522 105.623 28.4323 105.623 29.3505V31.3568C105.623 31.7989 105.521 32.139 105.317 32.445C105.113 32.7511 104.875 32.9551 104.569 33.0911C104.263 33.2272 103.957 33.3292 103.685 33.3632C103.413 33.4312 103.141 33.4312 102.869 33.4312C102.665 33.4312 102.461 33.4312 102.223 33.3972C101.985 33.3632 101.747 33.2952 101.475 33.2272C101.203 33.1252 100.965 33.0231 100.761 32.8531C100.556 32.7171 100.386 32.513 100.25 32.241C100.114 31.9349 100.046 31.6289 100.046 31.2548ZM100.999 31.2548C100.999 32.071 101.611 32.513 102.801 32.513H102.835C104.025 32.513 104.603 32.105 104.603 31.2888V30.0306C104.297 29.9626 103.923 29.9626 103.413 29.9626C101.815 29.9286 100.999 30.3707 100.999 31.2548Z" fill="#65686D"/>
<path d="M107.777 24.0581H106.825V33.2737H107.777V24.0581Z" fill="#65686D"/>
</g>
</svg>
