<svg width="16" height="16" viewBox="0 0 16 16" fill="none" xmlns="http://www.w3.org/2000/svg">
<g clip-path="url(#clip0)">
<path fill-rule="evenodd" clip-rule="evenodd" d="M14.2511 2.33426C14.9395 2.51825 15.4816 3.06048 15.6656 3.74876C16 4.99665 16 7.5999 16 7.5999C16 7.5999 16 10.2033 15.6656 11.451C15.4816 12.1393 14.9395 12.6817 14.2511 12.8655C13.0034 13.1999 7.99993 13.1999 7.99993 13.1999C7.99993 13.1999 2.99665 13.1999 1.74889 12.8655C1.06048 12.6817 0.518385 12.1393 0.334395 11.451C0 10.2033 0 7.5999 0 7.5999C0 7.5999 0 4.99665 0.334395 3.74876C0.518385 3.06048 1.06048 2.51825 1.74889 2.33426C2.99665 2 7.99993 2 7.99993 2C7.99993 2 13.0034 2 14.2511 2.33426ZM10.5566 7.59999L6.3999 9.9999V5.19983L10.5566 7.59999Z" fill="#FF0000"/>
</g>
<defs>
<clipPath id="clip0">
<rect width="16" height="16" fill="white"/>
</clipPath>
</defs>
</svg>
