<svg width="48" height="48" viewBox="0 0 48 48" fill="none" xmlns="http://www.w3.org/2000/svg">
<path d="M40 42H8C6.89543 42 6 41.1046 6 40V25.4C6 24.8238 6.24864 24.2757 6.682 23.896L10 21V8C10 6.89543 10.8954 6 12 6H40C41.1046 6 42 6.89543 42 8V40C42 41.1046 41.1046 42 40 42ZM18 14.658C18.4842 14.6586 18.9518 14.8348 19.316 15.154L29.316 23.904C29.748 24.2815 29.9971 24.8263 30 25.4V38H38V10H14V17.5L16.682 15.152C17.047 14.8331 17.5153 14.6575 18 14.658ZM16 32H20V38H26V26.314L18 19.314L10 26.314V38H16V32Z" fill="#2B364D"/>
</svg>
