<svg width="25" height="24" viewBox="0 0 25 24" fill="none" xmlns="http://www.w3.org/2000/svg">
<g clip-path="url(#clip0_5563_13324)">
<path d="M19.4999 20.0001H6.49992C3.37429 20.002 0.770809 17.604 0.516279 14.4887C0.261749 11.3735 2.44144 8.58465 5.52592 8.07911C6.94563 5.562 9.61003 4.00363 12.4999 4.00006C14.3019 3.99325 16.0524 4.60141 17.4619 5.72411C18.846 6.82197 19.83 8.34509 20.2619 10.0581C22.8458 10.4551 24.6877 12.7756 24.4879 15.3822C24.2882 17.9888 22.1141 20.0015 19.4999 20.0001ZM12.4999 6.0001C10.3316 6.00267 8.33259 7.17221 7.26792 9.06111L6.79992 9.90011L5.85091 10.0551C3.8012 10.3985 2.35592 12.2544 2.52513 14.3258C2.69433 16.3972 4.42164 17.9939 6.49992 18.0001H19.4999C21.0685 18.0017 22.3735 16.7947 22.4941 15.2308C22.6147 13.6668 21.5102 12.274 19.9599 12.0351L18.6439 11.8351L18.3219 10.5431C17.6572 7.86992 15.2545 5.99507 12.4999 6.0001ZM13.9499 16.0001H11.0499V13.0001H8.49992L12.4999 9.00011L16.4999 13.0001H13.9499V16.0001Z" fill="#2B364D"/>
</g>
<defs>
<clipPath id="clip0_5563_13324">
<rect width="24" height="24" fill="white" transform="translate(0.5)"/>
</clipPath>
</defs>
</svg>
