<svg width="16" height="16" viewBox="0 0 16 16" fill="none" xmlns="http://www.w3.org/2000/svg">
<path d="M8 0C3.58867 0 0 3.58872 0 8C0 12.4113 3.58872 16 8 16C12.4113 16 16 12.4113 16 8C16.0002 3.5891 12.4113 0 8 0ZM8.42912 12.6992L8.4406 12.802C8.4426 12.9043 8.45324 12.9744 8.45407 13.0413H7.50368C7.50551 12.9482 7.54277 12.8277 7.54942 12.6727C7.55907 12.4522 7.59683 12.2947 7.59683 12.1891V12.0154L7.39207 11.9896C6.78415 11.8988 6.183 11.6987 5.64713 11.4003C5.45502 11.2781 5.34607 11.2049 5.29368 11.163C5.40312 10.8885 5.6453 10.4597 6.02385 9.88487C6.07208 9.90583 6.13379 9.9401 6.21596 9.99598C6.41855 10.1334 6.48641 10.1725 6.52583 10.1891C6.96577 10.4263 7.48291 10.5462 8.06404 10.5462C8.87805 10.5462 8.99932 10.075 8.99932 9.79406C8.99932 9.38988 8.80106 9.03643 8.40136 8.73705C8.31138 8.67717 8.1043 8.55475 7.76815 8.3628C7.44281 8.17685 7.21478 8.04295 7.09087 7.96494C6.96895 7.88793 6.78482 7.75204 6.54397 7.56076C6.31227 7.37713 6.1486 7.21479 6.0571 7.07756C5.96196 6.93501 5.86898 6.74839 5.7805 6.52303C5.69617 6.30764 5.65325 6.07828 5.65325 5.84124C5.65325 4.71635 6.23558 4.04686 7.43865 3.79406L7.59683 3.76029V3.59662C7.59683 3.51878 7.59466 3.39719 7.58485 3.23186C7.5757 3.07635 7.57237 2.89022 7.57237 2.80772C7.57237 2.78693 7.57687 2.76963 7.58036 2.75683H8.51163C8.53093 2.82336 8.53974 2.88157 8.53991 2.89854C8.53991 3.08749 8.54523 3.34929 8.57002 3.52328L8.59264 3.68062L8.75098 3.69543C9.01212 3.71988 9.33898 3.79722 9.77755 3.9391C9.80766 3.95906 9.84592 3.97985 9.89215 4.00147C9.94837 4.02726 10.0064 4.05969 10.0666 4.09395L10.2647 4.20806C10.2977 4.22702 10.3274 4.24448 10.356 4.26244C10.3178 4.34411 10.2386 4.49763 10.0768 4.78107C9.85589 5.16762 9.74329 5.3416 9.68624 5.41995C9.61771 5.39517 9.48997 5.34676 9.25413 5.25179C8.88787 5.10442 8.60444 5.03257 8.38822 5.03257C8.16883 5.03257 7.96408 5.09677 7.77961 5.22335C7.5747 5.36456 7.46641 5.56832 7.46641 5.81301C7.46641 5.91347 7.48554 6.01227 7.5233 6.10707C7.55623 6.18891 7.59266 6.26193 7.63224 6.32414C7.67782 6.39549 7.75466 6.474 7.86694 6.56365C7.96823 6.64449 8.05223 6.7062 8.12358 6.75227C8.18911 6.79435 8.30388 6.8692 8.46805 6.97714C8.62955 7.08326 8.76112 7.17308 8.87456 7.25508C8.94891 7.30148 9.07665 7.38515 9.25745 7.50574L9.63884 7.76006C9.70704 7.80546 9.809 7.88064 9.94555 7.98527C10.1076 8.10935 10.1837 8.18437 10.2193 8.22578C10.277 8.29215 10.3496 8.38496 10.4346 8.50172C10.5121 8.60751 10.5668 8.70647 10.5977 8.79496C10.6328 8.89592 10.6663 9.01884 10.6972 9.15989C10.7266 9.29628 10.7419 9.44298 10.7419 9.59685C10.7419 10.2081 10.545 10.7148 10.1401 11.1459C9.7338 11.5785 9.19806 11.86 8.58413 11.9825L8.40333 12.0148V12.1799C8.40333 12.2942 8.42429 12.4672 8.42911 12.6992L8.42912 12.6992Z" fill="white"/>
</svg>
