<svg width="49" height="48" viewBox="0 0 49 48" fill="none" xmlns="http://www.w3.org/2000/svg">
<path d="M36.5 43.9998H12.5C10.2909 43.9998 8.5 42.2089 8.5 39.9998V7.99979C8.5 5.79065 10.2909 3.99979 12.5 3.99979H26.5C26.5179 3.99747 26.5361 3.99747 26.554 3.99979H26.566C26.5849 4.00571 26.6043 4.00973 26.624 4.01179C26.8004 4.0231 26.9745 4.05739 27.142 4.11379H27.172H27.202H27.226C27.2629 4.13964 27.2977 4.1684 27.33 4.19979C27.5479 4.29664 27.7464 4.43216 27.916 4.59979L39.916 16.5998C40.0836 16.7694 40.2192 16.9679 40.316 17.1858C40.334 17.2298 40.348 17.2718 40.362 17.3178L40.382 17.3738C40.4378 17.5406 40.4708 17.7142 40.48 17.8898C40.4817 17.9097 40.4865 17.9293 40.494 17.9478V17.9598C40.4973 17.9729 40.4993 17.9863 40.5 17.9998V39.9998C40.5 41.0607 40.0786 42.0781 39.3284 42.8282C38.5783 43.5784 37.5609 43.9998 36.5 43.9998ZM29.348 27.9998V37.9998H31.228V33.9198H34.148V32.2438H31.228V29.6818H34.5V27.9998H29.348ZM21.948 27.9998V37.9998H24.36C25.3719 38.0495 26.3517 37.6376 27.024 36.8798C27.7138 35.9996 28.0593 34.8983 27.996 33.7818V32.1618C28.0423 31.0571 27.6871 29.9729 26.996 29.1098C26.3453 28.3691 25.3952 27.9613 24.41 27.9998H21.948ZM14.5 27.9998V37.9998H16.38V34.4818H17.632C18.468 34.5281 19.2846 34.2186 19.88 33.6298C20.4482 32.9946 20.7428 32.1609 20.7 31.3098C20.7371 30.4382 20.4427 29.585 19.876 28.9218C19.3154 28.3002 18.5062 27.9619 17.67 27.9998H14.5ZM26.5 7.99979V17.9998H36.5L26.5 7.99979ZM24.392 36.3238H23.828V29.6818H24.512C24.9977 29.6532 25.4647 29.8731 25.752 30.2658C26.0452 30.8724 26.1709 31.5463 26.116 32.2178V33.9558C26.1599 34.5953 26.0212 35.2341 25.716 35.7978C25.3882 36.1804 24.893 36.3772 24.392 36.3238ZM17.67 32.7998H16.378V29.6818H17.688C18.015 29.6853 18.3173 29.8568 18.488 30.1358C18.7044 30.4929 18.8089 30.9067 18.788 31.3238C18.8131 31.7128 18.7098 32.0992 18.494 32.4238C18.2951 32.6735 17.9889 32.8132 17.67 32.7998Z" fill="white"/>
</svg>
