<svg width="24" height="24" viewBox="0 0 24 24" fill="none" xmlns="http://www.w3.org/2000/svg">
<path fill-rule="evenodd" clip-rule="evenodd" d="M19.8336 12.1919C19.8336 11.6063 19.7856 11.0495 19.6896 10.5215H12V13.6703H16.3968C16.3061 14.1706 16.1146 14.6473 15.8341 15.0714C15.5535 15.4955 15.1898 15.8582 14.7648 16.1375V18.1823H17.3952C18.1993 17.4108 18.8319 16.4787 19.2521 15.4466C19.6722 14.4146 19.8703 13.3056 19.8336 12.1919Z" fill="#4285F4"/>
<path fill-rule="evenodd" clip-rule="evenodd" d="M12.0001 20.1598C13.9883 20.2161 15.9225 19.5084 17.4049 18.1822L14.7649 16.1374C13.9407 16.6638 12.9777 16.9313 12.0001 16.9054C10.9825 16.8946 9.99389 16.5645 9.17397 15.9616C8.35406 15.3587 7.7442 14.5136 7.4305 13.5454H4.7041V15.6574C5.38278 17.0109 6.42464 18.1489 7.71315 18.944C9.00166 19.7391 10.486 20.1601 12.0001 20.1598Z" fill="#34A853"/>
<path fill-rule="evenodd" clip-rule="evenodd" d="M7.43025 13.5551C7.09499 12.5487 7.09499 11.4607 7.43025 10.4543V8.34229H4.70385C4.13485 9.47753 3.83898 10.73 3.83985 11.9999C3.83985 13.3151 4.15665 14.5631 4.70385 15.6671L7.43025 13.5551Z" fill="#FBBC05"/>
<path fill-rule="evenodd" clip-rule="evenodd" d="M12.0001 7.08476C13.1599 7.06563 14.2806 7.50358 15.1201 8.30396L17.4625 5.96156C15.9842 4.57518 14.0266 3.81486 12.0001 3.83996C10.487 3.83876 9.00337 4.25829 7.71496 5.05168C6.42655 5.84507 5.38411 6.98107 4.7041 8.33276L7.4305 10.4448C7.7442 9.47661 8.35406 8.63143 9.17398 8.02855C9.99389 7.42568 10.9825 7.09554 12.0001 7.08476Z" fill="#EA4335"/>
</svg>
