<svg width="176" height="176" viewBox="0 0 176 176" fill="none" xmlns="http://www.w3.org/2000/svg">
<path d="M9.36386 95.6932L1.92608 106.327L13.0586 112.988L8.17113 125.008L20.5059 129.051L18.3936 141.853L31.3186 143.046L31.7421 149.84L32.1243 155.995L44.9868 154.265L48.6645 166.704L60.8178 162.163L67.1642 173.493L78.0111 166.365L86.7069 176L95.6907 166.637L106.327 174.077L112.991 162.942L125.008 167.829L129.049 155.492L141.853 157.609L142.801 147.331L143.046 144.684L155.995 143.878L154.263 131.013L166.714 127.34L162.165 115.177L173.496 108.838L166.365 97.9914L176 89.2932L166.637 80.3044L174.084 69.6755L162.942 63.012L167.829 50.992L155.494 46.9514L157.609 34.1422L144.684 32.9566L143.878 20.0025L131.013 21.7349L127.338 9.28616L115.185 13.8349L108.843 2.50918L97.9941 9.63228L89.2958 0L80.3096 9.36346L69.6782 1.91827L63.0146 13.0551L50.9921 8.17248L46.9539 20.5022L34.1447 18.39L32.9566 31.3125L20.005 32.1231L21.7374 44.9855L9.29114 48.6584L13.8374 60.819L2.5092 67.158L9.63726 78.0074L0 86.7031L9.36386 95.6932Z" fill="#F93822"/>
</svg>
