<svg width="16" height="16" viewBox="0 0 16 16" fill="none" xmlns="http://www.w3.org/2000/svg">
<path d="M11.3333 14.6673L4.66667 14.6673C3.93029 14.6673 3.33333 14.0704 3.33333 13.334L3.33333 4.66732H2V3.33398H4.66667V2.66732C4.66667 1.93094 5.26362 1.33398 6 1.33398L10 1.33398C10.7364 1.33398 11.3333 1.93094 11.3333 2.66732V3.33398L14 3.33398V4.66732H12.6667L12.6667 13.334C12.6667 14.0704 12.0697 14.6673 11.3333 14.6673ZM4.66667 4.66732L4.66667 13.334L11.3333 13.334L11.3333 4.66732L4.66667 4.66732ZM6 2.66732V3.33398L10 3.33398V2.66732L6 2.66732ZM10 12.0007L8.66667 12.0007V6.00065H10L10 12.0007ZM7.33333 12.0007H6V6.00065H7.33333V12.0007Z" fill="#27263D"/>
</svg>
