<svg width="48" height="48" viewBox="0 0 48 48" fill="none" xmlns="http://www.w3.org/2000/svg">
<rect width="48" height="48" rx="24" fill="#FF0000"/>
<path fill-rule="evenodd" clip-rule="evenodd" d="M30.2511 18.3343C30.9395 18.5183 31.4816 19.0605 31.6656 19.7488C32 20.9966 32 23.5999 32 23.5999C32 23.5999 32 26.2033 31.6656 27.451C31.4816 28.1393 30.9395 28.6817 30.2511 28.8655C29.0034 29.1999 23.9999 29.1999 23.9999 29.1999C23.9999 29.1999 18.9966 29.1999 17.7489 28.8655C17.0605 28.6817 16.5184 28.1393 16.3344 27.451C16 26.2033 16 23.5999 16 23.5999C16 23.5999 16 20.9966 16.3344 19.7488C16.5184 19.0605 17.0605 18.5183 17.7489 18.3343C18.9966 18 23.9999 18 23.9999 18C23.9999 18 29.0034 18 30.2511 18.3343ZM26.5566 23.6L22.3999 25.9999V21.1998L26.5566 23.6Z" fill="white"/>
</svg>
